<?xml version="1.0" encoding="UTF-8" standalone="no"?>
<svg
   xmlns:dc="http://purl.org/dc/elements/1.1/"
   xmlns:cc="http://creativecommons.org/ns#"
   xmlns:rdf="http://www.w3.org/1999/02/22-rdf-syntax-ns#"
   xmlns:svg="http://www.w3.org/2000/svg"
   xmlns="http://www.w3.org/2000/svg"
   xmlns:sodipodi="http://sodipodi.sourceforge.net/DTD/sodipodi-0.dtd"
   xmlns:inkscape="http://www.inkscape.org/namespaces/inkscape"
   width="210mm"
   height="297mm"
   viewBox="0 0 210 297"
   version="1.1"
   id="svg8"
   inkscape:version="1.0.1 (3bc2e813f5, 2020-09-07)"
   sodipodi:docname="fairest_logo.svg"
   inkscape:export-filename="/home/houfu/WebstormProjects/fairest-frontend/public/fairest_logo.png"
   inkscape:export-xdpi="300"
   inkscape:export-ydpi="300">
  <defs
     id="defs2" />
  <sodipodi:namedview
     id="base"
     pagecolor="#ffffff"
     bordercolor="#666666"
     borderopacity="1.0"
     inkscape:pageopacity="0.0"
     inkscape:pageshadow="2"
     inkscape:zoom="0.98994949"
     inkscape:cx="132.59936"
     inkscape:cy="364.5526"
     inkscape:document-units="mm"
     inkscape:current-layer="layer1"
     inkscape:document-rotation="0"
     showgrid="false"
     inkscape:window-width="2560"
     inkscape:window-height="1376"
     inkscape:window-x="1920"
     inkscape:window-y="27"
     inkscape:window-maximized="1" />
  <metadata
     id="metadata5">
    <rdf:RDF>
      <cc:Work
         rdf:about="">
        <dc:format>image/svg+xml</dc:format>
        <dc:type
           rdf:resource="http://purl.org/dc/dcmitype/StillImage" />
        <dc:title />
      </cc:Work>
    </rdf:RDF>
  </metadata>
  <g
     inkscape:groupmode="layer"
     id="layer2"
     inkscape:label="background">
    <circle
       style="fill:#000000;stroke-width:0.765;stroke-linecap:round;stroke-linejoin:round"
       id="path845"
       cx="96.232391"
       cy="91.257462"
       r="87.930664" />
  </g>
  <g
     inkscape:label="Layer 1"
     inkscape:groupmode="layer"
     id="layer1">
    <path
       style="fill:#f2f2f2;stroke-width:0.117615"
       d="m 58.30225,150.69805 c -6.77886,-0.45878 -11.857663,-1.85878 -16.700463,-4.6036 -4.884311,-2.76835 -9.027252,-7.51488 -11.001392,-12.60421 -1.400107,-3.60948 -2.137041,-8.80657 -1.781412,-12.56312 0.572739,-6.04989 2.947733,-11.53458 6.850884,-15.82109 4.112129,-4.51603 9.316707,-7.084824 16.395321,-8.092144 1.336146,-0.19015 1.899152,-0.2128 5.288725,-0.2128 3.374969,0 3.955989,0.0232 5.267558,0.20999 6.843136,0.97479 11.226986,3.391034 14.727836,8.117504 1.52388,2.05741 2.42113,3.97084 2.99281,6.38238 0.39181,1.6528 0.55231,6.01826 0.29564,8.04133 -0.43353,3.41715 -1.25457,5.67229 -2.88136,7.9142 -2.7693,3.81641 -7.77463,6.7877 -13.545216,8.04075 -2.378107,0.51639 -3.552708,0.6356 -6.200731,0.62935 -2.193332,-0.005 -2.524069,-0.0287 -3.720433,-0.26558 -4.810509,-0.95206 -7.977145,-3.09291 -9.249738,-6.25341 -0.515953,-1.28137 -0.638249,-2.24042 -0.557321,-4.37048 0.06396,-1.68346 0.132949,-2.15342 0.439418,-2.99329 1.500347,-4.11165 5.387489,-7.73779 9.804948,-9.14662 3.995515,-1.27425 7.803367,-1.01872 10.416003,0.69895 3.08851,2.03054 3.86816,5.01117 2.19742,8.40073 -0.7682,1.55848 -2.865068,4.02622 -4.694496,5.52476 -1.1038,0.90417 -2.363519,1.29574 -2.947528,0.9162 -0.379653,-0.24673 -0.263393,-0.59807 0.418429,-1.26459 0.987983,-0.96581 3.52692,-4.40289 3.963612,-5.36576 0.517531,-1.14109 0.661778,-3.35838 0.280304,-4.30843 -0.47598,-1.1854 -1.425535,-2.00988 -2.737081,-2.37655 -2.460864,-0.68797 -6.268909,0.60224 -8.676657,2.93976 -3.136655,3.04516 -4.060633,6.77405 -2.516884,10.15736 0.747736,1.63876 2.386304,3.03438 4.272371,3.63892 0.575408,0.18444 1.472951,0.38104 1.994539,0.43693 2.791645,0.29908 6.824346,-0.47561 9.638911,-1.85162 6.00127,-2.93393 8.6335,-7.33752 8.64792,-14.46755 0.006,-3.21621 -0.46193,-5.12215 -1.94227,-7.90234 -1.70729,-3.20648 -4.51535,-5.49957 -8.10123,-6.6156 -1.679471,-0.52269 -2.646824,-0.66538 -4.887638,-0.72093 -5.835276,-0.14467 -11.183315,1.17142 -14.697545,3.61689 -2.386926,1.66101 -4.366298,4.19599 -5.784391,7.40811 -2.728518,6.18035 -2.557271,14.26136 0.438543,20.69437 2.366699,5.08211 6.365286,8.59807 11.800064,10.37583 7.1384,2.33499 17.949667,1.82613 26.217027,-1.23398 6.72211,-2.48814 10.12494,-6.20697 11.55917,-12.63256 1.75041,-7.84216 1.16207,-12.50749 -3.48547,-27.63886 -0.99306,-3.233224 -1.85047,-6.079344 -1.90534,-6.324684 -0.0549,-0.24537 -0.17483,-0.5083 -0.26658,-0.58431 -0.10307,-0.0854 -2.11809,-0.41723 -5.27328,-0.86839 -6.60849,-0.94495 -7.18,-1.08494 -7.53019,-1.84455 -0.35868,-0.77802 0.76199,-1.45317 2.95335,-1.77921 0.85846,-0.12772 1.84745,-0.16063 4.90513,-0.16319 3.73182,-0.004 3.82988,-0.008 3.82986,-0.19298 0,-0.10437 -0.12701,-0.915044 -0.28218,-1.801501 -0.87742,-5.011673 -1.24436,-12.266776 -0.88235,-17.446022 0.6609,-9.455291 2.52061,-15.981288 6.58832,-23.119199 3.29738,-5.786201 7.07201,-9.765266 13.933843,-14.688571 5.98734,-4.295847 13.37691,-7.143519 20.76477,-8.001959 1.88159,-0.218636 5.9557,-0.217564 7.94526,0.0021 3.20323,0.353647 5.49832,0.823632 8.03074,1.644513 5.56742,1.80467 10.3654,4.962317 13.38894,8.811525 3.10146,3.948418 5.38671,9.171337 6.39192,14.608743 0.39537,2.138702 0.55231,7.346429 0.28908,9.592305 -0.60812,5.188246 -2.50025,10.770331 -5.04915,14.895786 -0.76293,1.234825 -2.72763,3.730821 -3.86609,4.911581 -4.12369,4.276893 -9.70931,7.669324 -14.94272,9.075452 -2.34867,0.631052 -3.7754,0.820614 -6.57085,0.873069 -3.49372,0.06555 -5.89416,-0.228018 -9.25882,-1.132386 -5.90208,-1.586373 -11.26613,-4.891699 -14.02125,-8.63992 -1.87122,-2.545686 -2.81591,-5.539301 -2.81739,-8.927842 -0.001,-4.037342 1.38138,-8.498876 3.95342,-12.752752 1.5184,-2.511259 3.00386,-4.123099 4.98825,-5.412699 1.99324,-1.295348 4.97607,-2.460902 7.27623,-2.843211 1.47684,-0.245462 3.55616,-0.243846 5.04689,0.0039 4.68926,0.779401 9.61744,4.269289 11.66461,8.260306 1.70634,3.326561 1.85466,7.499068 0.36054,10.142307 -1.7186,3.040313 -5.98374,5.130406 -10.76702,5.27629 -2.9656,0.09045 -5.33074,-0.480345 -7.31135,-1.764466 -2.62663,-1.703 -3.17577,-3.654473 -1.79007,-6.361536 1.03853,-2.028864 2.51699,-2.933794 4.79738,-2.936375 2.84226,-0.0032 4.59826,1.596938 3.95061,3.599999 -0.31924,0.987343 -0.30578,1.03036 0.22056,0.705155 0.967,-0.597478 1.29598,-1.357871 1.29834,-3.001079 0.004,-2.684561 -1.41982,-5.207894 -3.87043,-6.859982 -1.068,-0.720002 -1.57983,-0.824217 -2.60318,-0.530035 -2.33622,0.671591 -4.61541,3.453107 -6.26632,7.647398 -2.00101,5.083727 -1.87843,9.643971 0.33896,12.610526 1.83553,2.45566 5.33647,4.690804 8.82601,5.63487 5.09321,1.377921 8.89029,0.64648 14.0085,-2.698503 4.30479,-2.813369 7.56054,-6.724948 9.76733,-11.734805 1.52847,-3.470009 2.03731,-6.145428 2.04142,-10.733658 0.004,-4.727343 -0.67524,-8.53185 -2.25226,-12.610528 -1.13657,-2.939602 -2.64645,-5.335728 -4.74193,-7.525277 -3.4234,-3.577098 -8.32757,-5.595118 -14.00623,-5.76343 -4.96612,-0.147192 -9.70248,1.09388 -15.31946,4.014166 -8.22505,4.276242 -14.179923,10.359102 -17.850953,18.234658 -2.60131,5.580647 -3.62308,10.603334 -3.77091,18.536525 -0.0832,4.469892 0.0197,6.444765 0.54628,10.477168 0.3235,2.477143 1.2619,7.841264 1.39651,7.982814 0.054,0.0567 1.32737,0.0664 3.39022,0.0258 3.40423,-0.0671 6.172503,0.0276 8.629123,0.29524 2.22943,0.24287 5.14203,1.32702 5.63944,2.09919 0.49189,0.76358 0.0871,1.82247 -0.91515,2.39439 -0.72648,0.41451 -2.66461,1.02364 -3.81415,1.19871 -1.7659,0.26895 -8.420623,0.039 -11.378443,-0.39308 -0.28155,-0.0412 -0.32826,-0.009 -0.32826,0.22527 0,0.43813 1.0671,4.222464 2.32594,8.248624 2.76827,8.85381 3.55704,13.10092 3.56869,19.21544 0.008,4.14507 -0.30156,6.50478 -1.24109,9.46403 -1.85833,5.85328 -6.68499,10.60009 -13.84523,13.61617 -4.72611,1.99076 -10.99757,3.47662 -17.28911,4.09623 -2.1726,0.21396 -6.883001,0.30825 -8.826927,0.17669 z m 57.55741,-48.04508 c -0.83787,-0.13633 -1.53237,-0.71543 -1.5314,-1.27693 0,-0.38706 0.31602,-0.72205 1.35562,-1.440164 0.79987,-0.55252 0.81551,-0.55788 1.48283,-0.509 0.76112,0.0558 1.19461,0.26263 1.48518,0.708794 0.59124,0.90779 -0.30724,2.24252 -1.67587,2.48956 -0.56203,0.10145 -0.64995,0.10363 -1.11636,0.0277 z"
       id="path992"
       sodipodi:nodetypes="ssssssscsssssccssssssssssssssscscsssssscsssssssscscssssssssssssssscssscsssssssscssssssscssssscsccsscscsscsssssccscsscc" />
  </g>
</svg>
